<?xml version="1.0" ?><svg data-name="Слой 1" id="Слой_1" viewBox="0 0 128 128" xmlns="http://www.w3.org/2000/svg"><title/><path d="M126,94H115.67a5.94,5.94,0,0,0,.33-1.94V27.94A6,6,0,0,0,110.06,22H17.94A6,6,0,0,0,12,27.94V92.06A5.94,5.94,0,0,0,12.33,94H2a2,2,0,0,0-2,2v.5C0,101,3.64,106,8.5,106h111c4.86,0,8.5-5,8.5-9.5V96A2,2,0,0,0,126,94ZM16,92.06V27.94A1.94,1.94,0,0,1,17.94,26h92.12A1.94,1.94,0,0,1,112,27.94V92.06A1.94,1.94,0,0,1,110.06,94H17.94A1.94,1.94,0,0,1,16,92.06ZM119.5,102H8.5c-1.95,0-3.67-2-4.27-4H123.77C123.17,100.05,121.45,102,119.5,102Z"/><path d="M63.49,35.11H63V32a2,2,0,0,0-2-2L43.43,30h0a2,2,0,0,0-1.6,3.21L46,38.67v2.95a26.59,26.59,0,0,0-9.47,20.46,25.8,25.8,0,0,0,9,19.84l-3.7,4.84a2,2,0,0,0-.21,2.1A2,2,0,0,0,43.43,90H81.69a2,2,0,0,0,1.57-.76l6.31-8a2,2,0,0,0,.23-2.11A2,2,0,0,0,88,78H84.78a24.71,24.71,0,0,0,5.68-15.92A27,27,0,0,0,63.49,35.11Zm-23,27A22.31,22.31,0,0,1,46,47.21V76.77A21.54,21.54,0,0,1,40.53,62.08ZM80.72,86H47.47l2.12-2.76A2,2,0,0,0,50,82V38a2,2,0,0,0-.41-1.21L47.46,34,59,34V80a2,2,0,0,0,2,2H83.87ZM63,78V39.12h.49a23,23,0,0,1,23,23,21.45,21.45,0,0,1-7,15.84.27.27,0,0,0-.07.08Z"/></svg>